<?xml version="1.0"?>
<svg xmlns="http://www.w3.org/2000/svg" xmlns:xlink="http://www.w3.org/1999/xlink" version="1.1" id="Capa_1" x="0px" y="0px" viewBox="0 0 510 510" style="enable-background:new 0 0 510 510;" xml:space="preserve" width="62.246" height="62.246"><g><g>
	<rect x="37.5" y="37.5" width="15" height="15" data-original="#000000" class="active-path" data-old_color="#000000" fill="#FFFFFF"/>
	<rect x="37.5" y="90" width="15" height="15" data-original="#000000" class="active-path" data-old_color="#000000" fill="#FFFFFF"/>
	<rect x="37.5" y="142.5" width="15" height="15" data-original="#000000" class="active-path" data-old_color="#000000" fill="#FFFFFF"/>
	<rect x="37.5" y="195" width="15" height="15" data-original="#000000" class="active-path" data-old_color="#000000" fill="#FFFFFF"/>
	<rect x="37.5" y="247.5" width="15" height="15" data-original="#000000" class="active-path" data-old_color="#000000" fill="#FFFFFF"/>
	<rect x="37.5" y="300" width="15" height="15" data-original="#000000" class="active-path" data-old_color="#000000" fill="#FFFFFF"/>
	<rect x="37.5" y="352.5" width="15" height="15" data-original="#000000" class="active-path" data-old_color="#000000" fill="#FFFFFF"/>
	<rect x="37.5" y="405" width="15" height="15" data-original="#000000" class="active-path" data-old_color="#000000" fill="#FFFFFF"/>
	<rect x="37.5" y="457.5" width="15" height="15" data-original="#000000" class="active-path" data-old_color="#000000" fill="#FFFFFF"/>
	<rect x="270" y="37.5" width="15" height="15" data-original="#000000" class="active-path" data-old_color="#000000" fill="#FFFFFF"/>
	<rect x="270" y="90" width="15" height="15" data-original="#000000" class="active-path" data-old_color="#000000" fill="#FFFFFF"/>
	<rect x="270" y="142.5" width="15" height="15" data-original="#000000" class="active-path" data-old_color="#000000" fill="#FFFFFF"/>
	<rect x="270" y="195" width="15" height="15" data-original="#000000" class="active-path" data-old_color="#000000" fill="#FFFFFF"/>
	<rect x="270" y="300" width="15" height="15" data-original="#000000" class="active-path" data-old_color="#000000" fill="#FFFFFF"/>
	<rect x="270" y="352.5" width="15" height="15" data-original="#000000" class="active-path" data-old_color="#000000" fill="#FFFFFF"/>
	<rect x="270" y="405" width="15" height="15" data-original="#000000" class="active-path" data-old_color="#000000" fill="#FFFFFF"/>
	<rect x="270" y="457.5" width="15" height="15" data-original="#000000" class="active-path" data-old_color="#000000" fill="#FFFFFF"/>
	<path d="M480,262.5c16.542,0,30-13.458,30-30V225c0-16.542-13.458-30-30-30s-30,13.458-30,30v7.5h15V225c0-8.271,6.729-15,15-15   s15,6.729,15,15v7.5c0,8.271-6.729,15-15,15h-46.992l-21.15,12.086C391.348,246.761,367.893,240,343.521,240H322.5V0H0v510h322.5   V330h24.619c34.338,0,66.628-13.316,90.98-37.5H480c8.271,0,15,6.729,15,15v7.5c0,8.271-6.729,15-15,15s-15-6.729-15-15v-7.5h-15   v7.5c0,16.542,13.458,30,30,30s30-13.458,30-30v-7.5c0-16.542-13.458-30-30-30h-42.597l-11.85-8.464l11.438-6.536H480z M90,15   h142.5v75H90V15z M232.5,495H90v-75h142.5V495z M247.5,495v-90H75v90H15V15h60v90h172.5V15h60v225h-60v-97.5H75v225h172.5v-75h60   V495H247.5z M232.5,292.5v60H90v-195h142.5v83.198c-24.661,2.757-47.498,13.694-65.304,31.499L165,274.394V292.5H232.5z M322.5,315   v-22.5h15v-15H183.552c17.129-14.563,38.643-22.5,61.375-22.5h98.595c23.928,0,46.867,7.351,66.337,21.259l13.437,9.597   C402.331,304.693,375.518,315,347.119,315H322.5z" data-original="#000000" class="active-path" data-old_color="#000000" fill="#FFFFFF"/>
	<rect x="352.5" y="277.5" width="15" height="15" data-original="#000000" class="active-path" data-old_color="#000000" fill="#FFFFFF"/>
</g></g> </svg>
