<?xml version="1.0"?>
<svg xmlns="http://www.w3.org/2000/svg" width="62.246" height="62.246" viewBox="-51 0 403 403.796" class=""><g><path d="m293.882812 81.375h-41.359374v-33.339844c0-4.417968-3.582032-8-8-8h-24.59375v-6.921875c0-18.289062-14.824219-33.113281-33.113282-33.113281-18.285156 0-33.109375 14.824219-33.109375 33.113281v6.921875h-145.308593c-4.417969 0-8 3.582032-8 8v306.402344c0 4.417969 3.582031 8 8 8h41.355468v33.359375c0 4.417969 3.582032 8 8 8h236.128906c4.417969 0 8-3.582031 8-8v-306.402344c.003907-2.125-.835937-4.164062-2.335937-5.667969-1.5-1.503906-3.539063-2.351562-5.664063-2.351562zm-57.359374-25.339844v25.355469h-16.59375v-25.355469zm-66.800782-22.910156c0-9.453125 7.660156-17.113281 17.113282-17.113281 9.449218 0 17.109374 7.660156 17.109374 17.113281v6.910156h-9.125v-5.871094c0-4.417968-3.578124-8-8-8-4.417968 0-8 3.582032-8 8v5.871094h-9.109374zm-153.324218 313.3125v-290.402344h187.53125v25.355469h-146.175782c-4.417968 0-8 3.582031-8 8v257.046875zm269.480468 41.359375h-220.125v-290.402344h138.175782v16.402344c0 4.417969 3.582031 8 8 8 4.417968 0 8-3.582031 8-8v-16.402344h65.953124zm0 0" data-original="#000000" class="active-path" data-old_color="#000000" fill="#FFFFFF"/><path d="m94.847656 156.347656h50.894532c4.417968 0 8-3.582031 8-8 0-4.417968-3.582032-8-8-8h-50.894532c-4.421875 0-8 3.582032-8 8 0 4.417969 3.578125 8 8 8zm0 0" data-original="#000000" class="active-path" data-old_color="#000000" fill="#FFFFFF"/><path d="m86.847656 213.71875c0 4.417969 3.578125 8 8 8h161.941406c4.417969 0 8-3.582031 8-8s-3.582031-8-8-8h-161.941406c-4.421875 0-8 3.582031-8 8zm0 0" data-original="#000000" class="active-path" data-old_color="#000000" fill="#FFFFFF"/><path d="m256.789062 247.558594h-161.941406c-4.421875 0-8 3.582031-8 8 0 4.417968 3.578125 8 8 8h161.941406c4.417969 0 8-3.582032 8-8 0-4.417969-3.582031-8-8-8zm0 0" data-original="#000000" class="active-path" data-old_color="#000000" fill="#FFFFFF"/><path d="m256.789062 289.398438h-161.941406c-4.421875 0-8 3.582031-8 8 0 4.417968 3.578125 8 8 8h161.941406c4.417969 0 8-3.582032 8-8 0-4.417969-3.582031-8-8-8zm0 0" data-original="#000000" class="active-path" data-old_color="#000000" fill="#FFFFFF"/><path d="m256.789062 331.234375h-161.941406c-4.421875 0-8 3.582031-8 8s3.578125 8 8 8h161.941406c4.417969 0 8-3.582031 8-8s-3.582031-8-8-8zm0 0" data-original="#000000" class="active-path" data-old_color="#000000" fill="#FFFFFF"/></g> </svg>
